<svg xmlns="http://www.w3.org/2000/svg" width="200" height="100" viewBox="0,0,200,100"><rect width="100%" height="100%" fill="#f0f0f0"/><path d="M12 20 C100 90,101 42,181 60" stroke="#d65151" fill="none"/><path d="M3 89 C99 85,120 86,181 37" stroke="#75e5ad" fill="none"/><path fill="#ca6aea" d="M42.89 53.27L43.01 53.39L37.56 53.28L37.57 53.29Q35.04 53.41 32.42 53.34L32.39 53.31L32.49 53.42Q32.53 59.33 30.69 64.26L30.59 64.15L30.68 64.24Q29.02 64.65 27.45 65.27L27.42 65.23L27.47 65.28Q29.94 60.17 29.94 54.22L29.98 54.27L30.04 54.33Q29.91 46.62 26.24 40.33L26.39 40.48L26.28 40.37Q27.66 41.10 29.87 41.81L29.91 41.85L29.86 41.81Q31.68 46.25 32.16 50.60L32.25 50.69L32.33 50.77Q35.16 51.12 37.71 51.08L37.59 50.96L37.62 51.00Q39.96 50.95 42.92 50.72L43.01 50.81L43.08 50.88Q43.32 46.77 44.88 42.21L44.86 42.19L44.94 42.27Q46.63 41.85 48.64 41.11L48.76 41.23L48.70 41.17Q45.45 47.16 45.45 54.27L45.47 54.29L45.54 54.36Q45.38 59.74 47.49 64.50L47.67 64.68L47.50 64.51Q46.19 64.08 44.35 63.81L44.21 63.67L44.24 63.70Q42.79 59.26 42.89 53.27ZM44.03 64.03L44.15 64.15L44.13 64.13Q45.08 64.30 46.07 64.54L46.02 64.49L46.04 64.52Q46.34 65.15 46.91 66.47L46.87 66.43L46.88 66.44Q49.80 67.22 51.40 68.04L51.42 68.05L51.53 68.17Q47.51 62.62 47.24 55.24L47.14 55.15L47.16 55.16Q46.90 48.01 50.17 41.92L50.20 41.96L49.32 42.44L49.16 42.27Q48.75 42.51 48.21 42.65L48.32 42.76L48.25 42.69Q48.53 41.88 49.28 40.49L49.43 40.64L49.28 40.49Q47.03 41.54 44.69 41.99L44.73 42.03L44.62 41.92Q43.06 46.17 42.65 50.35L42.68 50.38L42.79 50.49Q40.63 50.74 38.46 50.74L38.36 50.65L38.31 50.60Q36.15 50.58 33.91 50.44L33.94 50.47L33.99 50.53Q33.74 47.56 32.76 43.92L32.83 43.99L32.75 43.91Q32.15 43.83 30.86 43.49L30.85 43.48L30.95 43.57Q30.59 42.46 30.18 41.55L30.14 41.51L30.06 41.43Q27.61 40.75 25.58 39.63L25.63 39.68L25.65 39.70Q29.74 46.34 29.74 54.20L29.82 54.28L29.76 54.21Q29.80 60.48 27.01 65.95L26.91 65.84L26.89 65.83Q27.50 65.56 28.69 65.05L28.68 65.03L28.79 65.14Q28.41 65.82 27.70 67.18L27.76 67.23L27.78 67.26Q30.25 66.33 32.25 65.95L32.32 66.02L32.35 66.05Q33.94 61.01 34.11 55.51L34.12 55.51L34.08 55.48Q35.57 55.47 38.42 55.43L38.40 55.41L38.46 55.47Q40.98 55.41 42.68 55.47L42.59 55.38L42.58 55.38Q42.86 60.55 44.05 64.05Z"/><path fill="#aae96b" d="M161.73 53.32L161.70 53.28L156.52 53.44L156.51 53.43Q153.83 53.40 151.22 53.34L151.24 53.36L151.16 53.28Q151.24 59.24 149.40 64.17L149.53 64.29L149.54 64.30Q147.77 64.60 146.20 65.22L146.26 65.27L146.19 65.20Q148.80 60.23 148.80 54.28L148.86 54.35L148.85 54.33Q148.86 46.76 145.18 40.47L145.18 40.46L145.15 40.43Q146.55 41.19 148.76 41.91L148.60 41.75L148.61 41.76Q150.66 46.43 151.14 50.78L150.95 50.59L151.08 50.71Q153.85 51.00 156.39 50.97L156.50 51.07L156.49 51.07Q158.76 50.95 161.72 50.72L161.82 50.82L161.69 50.69Q162.10 46.74 163.66 42.19L163.84 42.37L163.74 42.27Q165.50 41.92 167.50 41.17L167.47 41.14L167.54 41.21Q164.29 47.21 164.29 54.31L164.34 54.36L164.32 54.34Q164.32 59.88 166.43 64.64L166.30 64.51L166.43 64.64Q164.85 63.95 163.01 63.67L163.17 63.83L163.10 63.76Q161.67 59.34 161.77 53.35ZM162.81 64.01L162.92 64.12L162.88 64.08Q163.83 64.25 164.82 64.49L164.80 64.47L164.85 64.52Q165.14 65.15 165.71 66.47L165.76 66.52L165.60 66.36Q168.71 67.33 170.31 68.14L170.29 68.12L170.18 68.02Q166.34 62.64 166.06 55.27L166.00 55.20L166.01 55.22Q165.66 47.96 168.92 41.88L169.06 42.02L168.00 42.31L168.04 42.35Q167.57 42.53 167.03 42.67L167.11 42.75L166.99 42.63Q167.40 41.95 168.15 40.56L168.18 40.59L168.10 40.51Q165.75 41.46 163.40 41.90L163.48 41.97L163.53 42.02Q161.92 46.23 161.51 50.41L161.49 50.39L161.48 50.38Q159.33 50.64 157.15 50.64L157.20 50.68L157.22 50.71Q154.97 50.60 152.73 50.46L152.84 50.57L152.81 50.54Q152.62 47.64 151.63 44.00L151.65 44.01L151.52 43.89Q151.03 43.90 149.74 43.56L149.69 43.51L149.76 43.59Q149.38 42.46 148.97 41.54L148.86 41.43L148.98 41.55Q146.57 40.91 144.53 39.78L144.42 39.67L144.39 39.65Q148.56 46.36 148.56 54.21L148.46 54.11L148.55 54.21Q148.43 60.31 145.65 65.78L145.64 65.78L145.68 65.82Q146.48 65.73 147.67 65.22L147.48 65.03L147.60 65.15Q147.27 65.88 146.56 67.24L146.63 67.30L146.54 67.22Q149.16 66.44 151.17 66.07L151.15 66.05L151.15 66.05Q152.67 60.94 152.84 55.44L152.93 55.52L152.83 55.43Q154.35 55.45 157.20 55.41L157.26 55.47L157.11 55.32Q159.76 55.39 161.46 55.45L161.42 55.42L161.45 55.45Q161.68 60.58 162.87 64.08Z"/><path fill="#dfc67a" d="M74.40 54.24L74.30 54.14L74.21 54.06Q74.29 57.94 73.65 61.65L73.61 61.61L73.63 61.63Q75.64 61.13 78.40 61.03L78.50 61.13L78.41 61.04Q79.55 61.15 80.50 60.25L80.53 60.29L80.54 60.30Q81.44 59.34 81.44 58.15L81.58 58.29L81.60 58.31Q81.54 57.98 81.50 57.74L81.52 57.76L81.46 57.70Q81.34 55.09 79.33 54.35L79.43 54.45L79.35 54.37Q78.68 54.10 78.07 54.17L78.12 54.22L78.03 54.13Q77.04 54.02 76.12 54.06L76.16 54.10L76.11 54.05Q75.22 54.14 74.30 54.14ZM73.19 44.80L73.13 44.75L73.16 44.77Q73.92 47.71 74.16 51.62L74.31 51.77L74.23 51.69Q75.55 51.82 77.93 51.86L77.83 51.76L77.99 51.92Q80.48 51.83 80.79 48.67L80.85 48.73L80.88 48.76Q80.98 46.96 79.73 46.21L79.76 46.24L79.83 46.32Q78.99 45.81 75.05 45.24L75.08 45.27L75.04 45.23Q74.01 45.02 73.20 44.81ZM70.00 65.31L69.96 65.26L69.93 65.23Q72.15 59.29 71.91 52.70L71.99 52.78L71.91 52.70Q71.62 46.16 69.01 40.38L69.06 40.44L68.96 40.34Q72.51 42.77 78.07 42.99L78.03 42.95L77.99 42.91Q83.51 43.09 83.81 45.67L83.95 45.81L83.90 45.76Q84.24 48.28 82.98 50.66L82.82 50.49L82.83 50.50Q82.18 51.86 80.75 52.47L80.83 52.54L80.71 52.43Q84.00 53.07 84.21 57.86L84.31 57.96L84.17 57.82Q84.33 58.90 84.26 60.16L84.30 60.20L84.19 60.09Q84.18 61.30 83.35 62.14L83.42 62.21L83.47 62.26Q82.56 63.01 81.37 63.15L81.44 63.22L81.44 63.22Q80.03 63.20 79.08 63.20L79.04 63.17L79.15 63.27Q73.98 63.20 69.93 65.24ZM81.47 65.63L81.31 65.47L81.31 65.47Q82.20 65.58 83.86 65.68L83.87 65.68L83.87 65.69Q85.24 65.83 86.23 65.05L86.14 64.96L86.04 64.86Q86.82 64.11 86.72 62.72L86.69 62.69L86.84 62.84Q86.69 61.91 86.04 58.81L86.08 58.85L86.12 58.89Q85.50 56.00 83.84 54.67L83.72 54.55L83.39 53.85L83.33 53.79Q84.96 52.67 85.47 49.30L85.48 49.31L85.42 49.25Q85.61 48.29 85.55 47.03L85.40 46.88L85.38 46.87Q85.38 45.74 84.39 45.00L84.49 45.09L84.39 45.00Q84.10 44.81 84.00 44.78L83.96 44.73L84.04 44.81Q83.78 44.32 83.03 43.60L83.13 43.70L83.11 43.68Q81.64 42.61 77.86 42.44L77.92 42.50L77.91 42.49Q72.01 42.27 68.44 39.68L68.47 39.71L68.52 39.76Q71.45 46.02 71.72 52.75L71.61 52.64L71.60 52.63Q71.89 59.62 69.38 65.81L69.40 65.83L71.30 65.04L71.37 65.11Q70.97 66.08 70.53 67.10L70.59 67.15L70.43 67.00Q74.42 65.48 78.91 65.48L78.89 65.47L78.82 65.39Q80.05 65.37 81.35 65.50ZM79.51 56.16L79.48 56.12L79.53 56.18Q80.13 56.06 80.94 56.47L80.88 56.41L81.02 56.54Q81.02 56.75 81.15 57.70L81.19 57.74L81.20 57.74Q81.42 59.02 80.59 59.96L80.53 59.89L80.59 59.95Q79.72 60.86 78.47 60.76L78.50 60.79L77.15 60.86L77.04 60.76Q76.37 60.81 75.73 60.91L75.70 60.88L75.75 60.92Q76.06 59.34 76.13 56.24L76.01 56.12L76.19 56.30Q76.74 56.21 77.87 56.18L77.74 56.06L77.78 56.09Q79.00 56.15 79.54 56.19ZM78.65 47.65L78.47 47.46L78.84 47.50L78.93 47.59Q79.01 47.46 79.18 47.50L79.25 47.57L79.54 47.51L79.87 47.68L80.52 47.86L80.46 47.79Q80.53 48.00 80.53 48.27L80.44 48.18L80.49 48.71L80.61 48.83Q80.55 49.89 79.76 50.72L79.83 50.79L79.73 50.68Q78.89 51.46 77.81 51.46L77.84 51.50L77.97 51.63Q76.92 51.49 76.92 51.49L76.99 51.56L76.93 51.51Q75.80 51.53 76.11 51.53L76.17 51.59L76.08 51.50Q76.12 50.22 75.85 47.50L75.76 47.41L75.77 47.42Q77.12 47.48 78.48 47.48Z"/><path fill="#5e9ede" d="M122.10 53.28L122.19 53.37L116.88 53.40L116.77 53.29Q114.33 53.50 111.71 53.43L111.71 53.43L111.57 53.29Q111.67 59.27 109.83 64.19L109.81 64.17L109.95 64.31Q108.25 64.69 106.69 65.30L106.64 65.26L106.75 65.36Q109.09 60.13 109.09 54.18L109.11 54.19L109.10 54.19Q109.23 46.73 105.56 40.45L105.58 40.47L105.46 40.34Q106.81 41.05 109.02 41.76L109.11 41.86L109.13 41.88Q111.06 46.42 111.54 50.78L111.40 50.64L111.53 50.77Q114.22 50.97 116.77 50.94L116.87 51.04L116.86 51.03Q119.19 50.99 122.15 50.75L122.16 50.76L122.11 50.71Q122.67 46.92 124.24 42.37L124.06 42.19L124.18 42.31Q125.88 41.90 127.88 41.15L127.87 41.14L127.80 41.07Q124.61 47.12 124.61 54.23L124.70 54.32L124.71 54.33Q124.76 59.92 126.86 64.68L126.84 64.65L126.83 64.64Q125.31 64.00 123.47 63.73L123.43 63.69L123.47 63.73Q121.95 59.22 122.05 53.23ZM123.21 64.01L123.34 64.14L123.31 64.11Q124.13 64.15 125.12 64.39L125.24 64.52L125.15 64.42Q125.49 65.11 126.07 66.43L126.15 66.51L126.09 66.45Q129.03 67.25 130.63 68.06L130.61 68.05L130.60 68.04Q126.76 62.67 126.49 55.29L126.30 55.11L126.41 55.21Q126.03 47.94 129.30 41.85L129.38 41.94L128.49 42.40L128.43 42.35Q127.91 42.47 127.36 42.60L127.43 42.67L127.41 42.65Q127.76 41.92 128.51 40.52L128.48 40.49L128.61 40.62Q126.23 41.54 123.88 41.98L123.91 42.01L123.95 42.04Q122.35 46.26 121.95 50.44L121.99 50.49L121.90 50.40Q119.73 50.64 117.55 50.64L117.65 50.73L117.63 50.71Q115.40 50.63 113.16 50.49L113.17 50.51L113.11 50.44Q112.93 47.55 111.95 43.91L112.08 44.04L111.92 43.89Q111.44 43.92 110.15 43.58L110.11 43.54L110.12 43.54Q109.72 42.39 109.31 41.48L109.42 41.59L109.41 41.58Q106.95 40.89 104.91 39.77L104.87 39.73L104.77 39.63Q108.97 46.37 108.97 54.22L108.93 54.19L108.86 54.11Q108.98 60.46 106.20 65.93L106.21 65.95L106.19 65.93Q106.84 65.69 108.03 65.18L108.04 65.20L107.92 65.07Q107.70 65.90 106.98 67.26L106.97 67.25L107.04 67.32Q109.45 66.33 111.45 65.95L111.52 66.02L111.50 66.00Q113.18 61.06 113.35 55.55L113.22 55.41L113.39 55.58Q114.78 55.48 117.64 55.45L117.54 55.35L117.68 55.49Q120.09 55.32 121.79 55.38L121.80 55.39L121.89 55.48Q122.16 60.65 123.35 64.16Z"/></svg>